# File created by Blade
# Date/Time:  Wed Jan 21 16:20:01 2015
# Frame Rate: 120.000 fps
#------------------------------------------------------
:FULLY-SPECIFIED
:DEGREES
628
root 14.242313 35.741989 -19.435741 -189.864597 -41.378341 -181.066608
Spine 12.018704 -34.377512 -9.422299
Head 27.729823 -23.605670 0.687838
LeftShoulder -3.083765 -23.357661 -0.173491
LeftArm -4.661005 49.799509 -61.062457
LeftForeArm 29.724467 -0.000000 65.212736
LeftHand -4.396063 -0.000000 -26.013897
LeftHandThumb1 -26.253704 0.000000 33.147579
RightShoulder -15.476318 -11.335437 8.329293
RightArm -7.717194 29.886145 48.764763
RightForeArm -31.336259 -0.000000 31.991936
RightHand -2.730417 0.000000 8.137980
RightHandThumb1 -24.326973 -0.000000 -32.862282
LeftUpLeg 18.794609 -19.359099 -12.674129
LeftLeg -13.160379 -0.000000 0.000000
LeftFoot 3.853227 17.740330 3.423376
LeftToeBase -163.470873 -0.000000 0.000000
RightUpLeg -73.750029 34.215188 11.876301
RightLeg 117.761977 -0.000000 -0.000000
RightFoot 28.666938 -20.072391 -16.855574
RightToeBase 23.994311 -0.000000 -0.000000
629
root 14.213207 35.742977 -19.455014 -189.850085 -41.857285 -181.137487
Spine 11.864167 -34.791905 -9.402209
Head 28.224678 -24.430608 0.157928
LeftShoulder -3.335570 -23.359898 -0.145535
LeftArm -5.388179 49.382487 -61.432114
LeftForeArm 29.806300 -0.000000 65.459258
LeftHand -4.383024 0.000000 -25.978885
LeftHandThumb1 -26.253704 0.000000 33.147579
RightShoulder -15.708925 -11.385104 8.104831
RightArm -8.279633 30.611645 48.219640
RightForeArm -31.606432 -0.000000 31.933857
RightHand -2.960405 -0.000000 8.477488
RightHandThumb1 -24.326973 -0.000000 -32.862282
LeftUpLeg 18.907781 -19.466674 -12.734582
LeftLeg -13.199979 -0.000000 0.000000
LeftFoot 3.741175 17.404724 3.104949
LeftToeBase -163.169692 -0.000000 0.000000
RightUpLeg -73.710607 34.302351 11.942516
RightLeg 117.665276 -0.000000 -0.000000
RightFoot 28.600883 -19.986827 -16.847169
RightToeBase 24.089256 -0.000000 -0.000000
630
root 14.185942 35.747152 -19.472234 -189.797973 -42.346453 -181.235954
Spine 11.688625 -35.233267 -9.417832
Head 28.805212 -25.311942 -0.430861
LeftShoulder -3.571676 -23.389884 -0.122092
LeftArm -6.190789 48.879791 -61.840123
LeftForeArm 29.987842 -0.000000 65.687054
LeftHand -4.340802 -0.000000 -26.021981
LeftHandThumb1 -26.253704 0.000000 33.147579
RightShoulder -15.869216 -11.391025 7.873282
RightArm -8.973680 31.276956 47.587744
RightForeArm -31.778283 0.000000 31.781082
RightHand -3.124690 -0.000000 8.746506
RightHandThumb1 -24.326973 -0.000000 -32.862282
LeftUpLeg 18.979147 -19.513967 -12.773438
LeftLeg -13.223908 -0.000000 0.000000
LeftFoot 3.654913 16.889923 2.744112
LeftToeBase -162.897009 -0.000000 0.000000
RightUpLeg -73.682352 34.401952 11.964882
RightLeg 117.543972 -0.000000 -0.000000
RightFoot 28.511435 -19.960530 -16.872744
RightToeBase 24.143909 -0.000000 -0.000000
631
root 14.156423 35.753405 -19.484317 -189.677224 -42.871818 -181.372822
Spine 11.440881 -35.694949 -9.414461
Head 29.432126 -26.203513 -1.084851
LeftShoulder -3.832142 -23.312325 -0.117098
LeftArm -6.752934 48.420926 -62.087602
LeftForeArm 30.104431 0.000000 65.828348
LeftHand -4.312720 -0.000000 -26.047465
LeftHandThumb1 -26.253704 0.000000 33.147579
RightShoulder -16.069641 -11.333265 7.604504
RightArm -9.734715 31.883089 46.927808
RightForeArm -31.720388 -0.000000 31.616994
RightHand -3.235688 -0.000000 8.704566
RightHandThumb1 -24.326973 -0.000000 -32.862282
LeftUpLeg 18.983576 -19.533280 -12.819294
LeftLeg -13.208732 -0.000000 0.000000
LeftFoot 3.594076 16.257845 2.384640
LeftToeBase -162.717624 -0.000000 0.000000
RightUpLeg -73.706098 34.444409 11.929742
RightLeg 117.437112 -0.000000 -0.000000
RightFoot 28.464077 -19.857438 -16.972736
RightToeBase 23.898543 -0.000000 -0.000000
632
root 14.128867 35.761204 -19.496505 -189.579859 -43.398820 -181.505552
Spine 11.234071 -36.156189 -9.440021
Head 30.051744 -27.034087 -1.686202
LeftShoulder -4.068275 -23.232373 -0.132610
LeftArm -7.282661 47.998572 -62.274657
LeftForeArm 30.247256 -0.000000 66.001449
LeftHand -4.246056 -0.000000 -26.008658
LeftHandThumb1 -26.253704 0.000000 33.147579
RightShoulder -16.252783 -11.419675 7.365567
RightArm -10.398274 32.538051 46.298597
RightForeArm -31.627933 -0.000000 31.377421
RightHand -3.369257 -0.000000 8.591703
RightHandThumb1 -24.326973 -0.000000 -32.862282
LeftUpLeg 19.005107 -19.559506 -12.863941
LeftLeg -13.190705 -0.000000 0.000000
LeftFoot 3.496741 15.598766 1.978013
LeftToeBase -162.742721 -0.000000 0.000000
RightUpLeg -73.694730 34.488088 11.922771
RightLeg 117.309576 -0.000000 -0.000000
RightFoot 28.338966 -19.905985 -16.911989
RightToeBase 23.844190 -0.000000 -0.000000
633
root 14.099797 35.771687 -19.510056 -189.476863 -43.949441 -181.638888
Spine 11.021873 -36.625964 -9.476256
Head 30.722975 -27.898277 -2.286227
LeftShoulder -4.303155 -23.120393 -0.126295
LeftArm -7.767252 47.530113 -62.483398
LeftForeArm 30.484247 -0.000000 66.097377
LeftHand -4.140968 -0.000000 -26.000819
LeftHandThumb1 -26.253704 0.000000 33.147579
RightShoulder -16.446082 -11.549776 7.129640
RightArm -11.052733 33.201997 45.665561
RightForeArm -31.379264 -0.000000 31.058100
RightHand -3.384042 0.000000 8.485516
RightHandThumb1 -24.326973 -0.000000 -32.862282
LeftUpLeg 19.028304 -19.630731 -12.929997
LeftLeg -13.161014 -0.000000 0.000000
LeftFoot 3.429786 15.033661 1.537991
LeftToeBase -162.690801 -0.000000 0.000000
RightUpLeg -73.687349 34.508336 11.897236
RightLeg 117.191520 -0.000000 -0.000000
RightFoot 28.214928 -19.844712 -16.910898
RightToeBase 23.640856 -0.000000 -0.000000
634
root 14.068887 35.781089 -19.520855 -189.377657 -44.506985 -181.761736
Spine 10.818781 -37.137512 -9.489664
Head 31.344662 -28.700012 -2.934137
LeftShoulder -4.535627 -23.057448 -0.132843
LeftArm -8.326460 47.082217 -62.729361
LeftForeArm 30.694234 -0.000000 66.257308
LeftHand -4.108088 -0.000000 -25.945202
LeftHandThumb1 -26.253704 0.000000 33.147579
RightShoulder -16.622533 -11.656013 6.812422
RightArm -11.699342 33.944458 45.054145
RightForeArm -30.941333 -0.000000 30.678659
RightHand -3.367407 -0.000000 8.383338
RightHandThumb1 -24.326973 -0.000000 -32.862282
LeftUpLeg 19.043204 -19.706703 -12.999220
LeftLeg -13.119683 -0.000000 0.000000
LeftFoot 3.398729 14.483218 1.233900
LeftToeBase -162.590731 -0.000000 0.000000
RightUpLeg -73.688233 34.504739 11.883456
RightLeg 117.087082 -0.000000 -0.000000
RightFoot 28.067799 -19.830915 -16.851725
RightToeBase 23.795760 -0.000000 -0.000000
